<?xml version="1.0" standalone="no"?>
<!DOCTYPE svg PUBLIC "-//W3C//DTD SVG 1.1//EN" "http://www.w3.org/Graphics/SVG/1.1/DTD/svg11.dtd" >
<svg xmlns="http://www.w3.org/2000/svg"
   width="1024"
   height="1024">
<g>
<path d="M1154.286 944.571q16-11.429 16-30.286v-804.571q0-11.429-6.286-20.571t-16.571-13.143l-365.714-146.286q-13.714-6.286-27.429 0l-352 140.571-352-140.571q-5.714-2.857-13.714-2.857-10.857 0-20.571 6.286-16 11.429-16 30.286v804.571q0 11.429 6.286 20.571t16.571 13.143l365.714 146.286q13.714 6.286 27.429 0l352-140.571 352 140.571q18.286 7.429 34.286-3.429zM420.571 867.428v-725.714l329.143-131.429v725.714zM73.143 743.428v-725.714l310.857 124v725.714zM1097.143 134.286v725.714l-310.857-124v-725.714z" />
</g>
</svg>
