<?xml version="1.0" encoding="UTF-8" standalone="no"?>
<svg
   xmlns:dc="http://purl.org/dc/elements/1.1/"
   xmlns:cc="http://creativecommons.org/ns#"
   xmlns:rdf="http://www.w3.org/1999/02/22-rdf-syntax-ns#"
   xmlns:svg="http://www.w3.org/2000/svg"
   xmlns="http://www.w3.org/2000/svg"
   xmlns:sodipodi="http://sodipodi.sourceforge.net/DTD/sodipodi-0.dtd"
   xmlns:inkscape="http://www.inkscape.org/namespaces/inkscape"
   width="16"
   height="16"
   id="svg6563"
   version="1.1"
   inkscape:version="0.91 r13725"
   sodipodi:docname="point.svg">
  <metadata
     id="metadata6573">
    <rdf:RDF>
      <cc:Work
         rdf:about="">
        <dc:format>image/svg+xml</dc:format>
        <dc:type
           rdf:resource="http://purl.org/dc/dcmitype/StillImage" />
        <dc:title></dc:title>
      </cc:Work>
    </rdf:RDF>
  </metadata>
  <defs
     id="defs6571" />
  <sodipodi:namedview
     pagecolor="#ffffff"
     bordercolor="#666666"
     borderopacity="1"
     objecttolerance="10"
     gridtolerance="10"
     guidetolerance="10"
     inkscape:pageopacity="0"
     inkscape:pageshadow="2"
     inkscape:window-width="1629"
     inkscape:window-height="1026"
     id="namedview6569"
     showgrid="false"
     inkscape:zoom="6.5299479"
     inkscape:cx="23.864407"
     inkscape:cy="-17.355932"
     inkscape:window-x="51"
     inkscape:window-y="24"
     inkscape:window-maximized="1"
     inkscape:current-layer="svg6563" />
  <g
     id="g6565"
     transform="matrix(0.0156,0,0,0.0156,-0.00678194,1.2656259)">
    <path
       d="m 509.935,575.94 c -80.736,0.544 -150.592,-78.808 -140,-159 7.008,-73.888 78.088,-136.136 153,-129 68.192,3.84 129.616,61.264 134,130 6.432,62.464 -31.576,126.464 -91,148 -17.696,6.976 -36.864,10.576 -56,10 z m 3,-87 c 38.816,1.952 70.696,-45.088 53,-80 -13.76,-31.968 -59.832,-45.456 -87,-22 -25.152,19.2 -30.136,60.344 -7,83 10.24,11.52 25.288,18.936 41,19 z"
       id="path6567"
       inkscape:connector-curvature="0" />
  </g>
</svg>
