<?xml version="1.0" encoding="UTF-8" standalone="no"?>
<svg
   xmlns:dc="http://purl.org/dc/elements/1.1/"
   xmlns:cc="http://creativecommons.org/ns#"
   xmlns:rdf="http://www.w3.org/1999/02/22-rdf-syntax-ns#"
   xmlns:svg="http://www.w3.org/2000/svg"
   xmlns="http://www.w3.org/2000/svg"
   xmlns:sodipodi="http://sodipodi.sourceforge.net/DTD/sodipodi-0.dtd"
   xmlns:inkscape="http://www.inkscape.org/namespaces/inkscape"
   width="16"
   height="16"
   id="svg7158"
   version="1.1"
   inkscape:version="0.91 r13725"
   sodipodi:docname="polygon.svg">
  <metadata
     id="metadata7168">
    <rdf:RDF>
      <cc:Work
         rdf:about="">
        <dc:format>image/svg+xml</dc:format>
        <dc:type
           rdf:resource="http://purl.org/dc/dcmitype/StillImage" />
        <dc:title></dc:title>
      </cc:Work>
    </rdf:RDF>
  </metadata>
  <defs
     id="defs7166" />
  <sodipodi:namedview
     pagecolor="#ffffff"
     bordercolor="#666666"
     borderopacity="1"
     objecttolerance="10"
     gridtolerance="10"
     guidetolerance="10"
     inkscape:pageopacity="0"
     inkscape:pageshadow="2"
     inkscape:window-width="1629"
     inkscape:window-height="1026"
     id="namedview7164"
     showgrid="false"
     inkscape:zoom="2.3890053"
     inkscape:cx="95.457627"
     inkscape:cy="-43.389831"
     inkscape:window-x="51"
     inkscape:window-y="24"
     inkscape:window-maximized="1"
     inkscape:current-layer="svg7158" />
  <g
     id="g7160"
     transform="matrix(0.0156,0,0,-0.0156,-0.11852298,15.025099)">
    <path
       d="M 331,965 C 250.264,965.544 180.408,886.192 191,806 194.842,765.491 218.568,728.996 251,705 220.29,617.925 188.922,531.01 158,444 77.488,444.48 6.6,365.096 17,285 23.72,210.6 95.736,148.416 171,156 c 34.991,2.187 68.338,18.534 93,43 81.538,-34.003 163.589,-67.706 245,-102 -1.086,-9.103 -0.967,-18.697 0,-28 4.768,-74.688 75.384,-139.144 151,-133 68.576,2.752 131.816,59.752 137,129 3.995,36.519 -7.204,74.003 -29,103 27.891,38.045 55.975,76.057 84,114 11.876,-2.512 23.607,-3.038 36,-2 68.352,3.008 130.752,59.944 136,129 7.008,61.792 -29.728,125.536 -88,148 -7.151,3.003 -14.463,5.197 -22,7 -2.772,39.623 -5.394,79.364 -8,119 47.62,20.091 85.007,66.453 89,119 7.008,61.792 -29.728,125.536 -88,148 -18.592,7.808 -38.808,11.672 -59,11 -5.026,0.03 -10.071,0.57 -15,0 -53.939,-6.235 -100.309,-47.986 -118,-99 -80.796,0.254 -162.202,0.55 -243,1 -12.857,41.273 -43.658,77.017 -85,92 -17.696,6.976 -36.864,10.576 -56,10 z m 3,-87 c 38.816,1.952 70.696,-45.088 53,-80 -13.76,-31.968 -59.832,-45.456 -87,-22 -25.152,19.2 -30.136,60.344 -7,83 10.24,11.52 25.288,18.936 41,19 z m 518,-4 c 39.744,1.664 70.392,-46.088 51,-81 -14.912,-31.872 -61.984,-44.312 -88,-19 -23.2,19.744 -27.656,60.176 -5,82 10.176,11.424 26.512,18 42,18 z M 472,776 c 80.61,-0.287 161.392,-1.535 242,-2 15.221,-47.058 56.091,-85.039 104,-97 2.765,-39.986 5.359,-80.002 8,-120 -56.227,-24.129 -96.893,-84.756 -89,-147 2.681,-30.922 17.147,-60.21 38,-83 -26.725,-36.37 -53.005,-72.825 -80,-109 -14.047,4.515 -28.346,7.309 -43,7 l 0,-1 c -40.513,0.745 -79.17,-18.436 -106,-48 -80.722,33.703 -161.338,68.153 -242,102 0.351,2.698 0.827,5.262 1,8 5.132,51.51 -19.488,104.312 -62,133 30.266,86.016 60.491,172.065 91,258 3.324,0.047 6.656,-0.319 10,0 57.566,3.242 110.323,44.817 128,99 z M 881,481 c 39.744,1.664 70.392,-46.088 51,-81 -14.912,-31.872 -61.984,-44.312 -88,-19 -23.2,19.744 -27.656,60.176 -5,82 10.176,11.424 26.512,18 42,18 z M 161,357 c 39.2,1.792 71.072,-46.736 52,-82 -14.624,-31.648 -60.408,-43.648 -87,-20 -24.192,19.2 -29.464,59.376 -7,82 10.368,11.808 26.064,20 42,20 z M 652,137 c 39.424,2.368 71.816,-45.608 53,-81 -13.92,-30.688 -58.344,-43.792 -85,-22 -27.168,19.04 -31.768,63.184 -7,86 10.272,10.528 24.216,16.968 39,17 z"
       id="path7162"
       inkscape:connector-curvature="0" />
  </g>
</svg>
