<?xml version="1.0" encoding="UTF-8" standalone="no"?>
<svg
   xmlns:dc="http://purl.org/dc/elements/1.1/"
   xmlns:cc="http://creativecommons.org/ns#"
   xmlns:rdf="http://www.w3.org/1999/02/22-rdf-syntax-ns#"
   xmlns:svg="http://www.w3.org/2000/svg"
   xmlns="http://www.w3.org/2000/svg"
   xmlns:sodipodi="http://sodipodi.sourceforge.net/DTD/sodipodi-0.dtd"
   xmlns:inkscape="http://www.inkscape.org/namespaces/inkscape"
   width="16"
   height="16"
   id="svg2"
   version="1.1"
   inkscape:version="0.91 r13725"
   sodipodi:docname="rectangle.svg">
  <metadata
     id="metadata12">
    <rdf:RDF>
      <cc:Work
         rdf:about="">
        <dc:format>image/svg+xml</dc:format>
        <dc:type
           rdf:resource="http://purl.org/dc/dcmitype/StillImage" />
        <dc:title></dc:title>
      </cc:Work>
    </rdf:RDF>
  </metadata>
  <defs
     id="defs10" />
  <sodipodi:namedview
     pagecolor="#ffffff"
     bordercolor="#666666"
     borderopacity="1"
     objecttolerance="10"
     gridtolerance="10"
     guidetolerance="10"
     inkscape:pageopacity="0"
     inkscape:pageshadow="2"
     inkscape:window-width="1629"
     inkscape:window-height="1026"
     id="namedview8"
     showgrid="false"
     inkscape:zoom="26.519139"
     inkscape:cx="7.5651446"
     inkscape:cy="6.2711067"
     inkscape:window-x="51"
     inkscape:window-y="24"
     inkscape:window-maximized="1"
     inkscape:current-layer="svg2" />
  <g
     id="g4"
     transform="matrix(0.0156,0,0,0.0156,0.00770705,1.0130353)">
    <path
       d="M 148,864 C 128.992,864.48 109.76,861.12 92,853.984 16,826.752 -22.496,728.64 15.008,656.992 31.296,622.848 61.632,596.672 97.024,584 L 96.032,311.008 c -1.312,-0.48 -2.688,-0.48 -4,-0.992 -76,-27.232 -114.496,-125.344 -76.992,-196.992 31.968,-66.976 120.096,-101.44 188,-68.992 36.64,15.776 64.544,47.872 78.016,84.992 l 462.016,-0.992 c 1.824,-4.96 3.52,-10.24 6.016,-15.008 31.968,-66.976 120.096,-101.44 188,-68.992 62.72,27.04 101.504,101.952 82.016,168 -11.84,46.656 -48.864,85.568 -94.016,100.992 l 0.992,271.008 c 3.712,1.344 7.392,2.272 11.008,4 62.72,27.04 101.504,101.952 82.016,168 -15.424,60.864 -73.792,108.192 -136.992,108 -19.008,0.48 -38.24,-2.88 -56,-10.016 -40.064,-14.368 -69.408,-48.512 -83.008,-88 l -462.016,0.992 c -19.36,55.36 -73.76,97.184 -132.992,96.992 z m -8.992,-87.008 c 32.64,3.296 67.04,-26.976 63.008,-60.992 C 200.064,681.248 161.6,653.312 128,665.984 c -30.208,9.376 -48.928,45.76 -35.008,75.008 5.664,14.336 17.28,26.528 32,32 4.48,1.888 9.344,3.52 14.016,4 z m 733.984,0 c 32.64,3.296 67.04,-26.976 63.008,-60.992 -1.952,-34.752 -40.416,-62.688 -74.016,-50.016 -30.208,9.376 -48.928,45.76 -35.008,75.008 5.664,14.336 17.28,26.528 32,32 4.48,1.888 9.344,3.52 14.016,4 z m -592,-103.008 460.992,-0.992 c 1.92,-5.376 4.32,-10.848 7.008,-16 16.576,-34.72 47.872,-60.544 84,-72.992 l 0,-272 c -2.336,-0.8 -4.704,-1.088 -7.008,-2.016 -40.288,-14.432 -69.536,-49.216 -83.008,-88.992 l -460.992,0 c -13.984,42.272 -49.216,77.408 -91.008,92 L 191.968,584 c 3.584,1.312 7.52,2.336 11.008,4 36.896,15.904 64.672,48.512 78.016,86.016 z M 139.008,232.992 c 32.64,3.296 67.04,-26.976 63.008,-60.992 C 200.064,137.248 161.6,109.312 128,121.984 c -30.208,9.376 -48.928,45.76 -35.008,75.008 5.664,14.336 17.28,26.528 32,32 4.48,1.888 9.344,3.52 14.016,4 z m 733.984,0 c 32.64,3.296 67.04,-26.976 63.008,-60.992 -1.952,-34.752 -40.416,-62.688 -74.016,-50.016 -30.208,9.376 -48.928,45.76 -35.008,75.008 5.664,14.336 17.28,26.528 32,32 4.48,1.888 9.344,3.52 14.016,4 z"
       id="path6"
       inkscape:connector-curvature="0" />
  </g>
</svg>
