<?xml version="1.0" encoding="UTF-8" standalone="no"?>
<svg
   xmlns:dc="http://purl.org/dc/elements/1.1/"
   xmlns:cc="http://creativecommons.org/ns#"
   xmlns:rdf="http://www.w3.org/1999/02/22-rdf-syntax-ns#"
   xmlns:svg="http://www.w3.org/2000/svg"
   xmlns="http://www.w3.org/2000/svg"
   xmlns:sodipodi="http://sodipodi.sourceforge.net/DTD/sodipodi-0.dtd"
   xmlns:inkscape="http://www.inkscape.org/namespaces/inkscape"
   width="16"
   height="16"
   id="svg4183"
   version="1.1"
   inkscape:version="0.91 r13725"
   sodipodi:docname="circle.svg">
  <metadata
     id="metadata4193">
    <rdf:RDF>
      <cc:Work
         rdf:about="">
        <dc:format>image/svg+xml</dc:format>
        <dc:type
           rdf:resource="http://purl.org/dc/dcmitype/StillImage" />
        <dc:title></dc:title>
      </cc:Work>
    </rdf:RDF>
  </metadata>
  <defs
     id="defs4191" />
  <sodipodi:namedview
     pagecolor="#ffffff"
     bordercolor="#666666"
     borderopacity="1"
     objecttolerance="10"
     gridtolerance="10"
     guidetolerance="10"
     inkscape:pageopacity="0"
     inkscape:pageshadow="2"
     inkscape:window-width="1629"
     inkscape:window-height="1026"
     id="namedview4189"
     showgrid="false"
     inkscape:zoom="6.9963728"
     inkscape:cx="23.864407"
     inkscape:cy="21.694915"
     inkscape:window-x="51"
     inkscape:window-y="24"
     inkscape:window-maximized="1"
     inkscape:current-layer="svg4183" />
  <g
     id="g4185"
     transform="matrix(0,0.0156,-0.0156,0,15.163871,1.1516)">
    <path
       d="M 439,899 C 359.384,899 286.243,879.232 219,840 151.757,800.768 98.232,747.243 59,680 19.768,612.757 0,539.616 0,460 0,380.384 19.768,307.243 59,240 98.232,172.757 151.757,119.232 219,80 286.243,40.768 359.384,21 439,21 c 62.722,0 121.034,12.611 176,37 28.51,-26.202 66.624,-41.751 106,-38 68.192,3.84 129.616,61.264 134,130 3.768,36.594 -7.892,73.198 -30,102 34.794,63.963 53,133.039 53,208 0,79.616 -19.768,152.757 -59,220 -39.232,67.243 -92.757,120.768 -160,160 -67.243,39.232 -140.384,59 -220,59 z m 0,-73 c 49.493,0 96.816,-9.565 142,-29 45.184,-19.435 83.467,-45.424 116,-78 32.533,-32.576 58.523,-71.859 78,-117 19.477,-45.141 30.043,-92.464 30,-142 -0.043,-49.536 -10.608,-96.859 -30,-142 -3.052,-7.106 -6.635,-14.233 -10,-21 -0.423,0.159 -0.574,0.846 -1,1 -17.696,6.976 -36.864,10.576 -56,10 -80.736,0.544 -150.592,-78.808 -140,-159 0.876,-9.236 3.239,-18.241 6,-27 0.095,-0.302 -0.097,-0.699 0,-1 -42.964,-17.536 -88.033,-27 -135,-27 -49.557,0 -96.88,10.565 -142,30 -45.12,19.435 -84.403,45.424 -117,78 -32.597,32.576 -58.587,70.859 -78,116 -19.413,45.141 -28.979,92.464 -29,142 -0.021,49.536 9.544,96.859 29,142 19.456,45.141 45.445,84.424 78,117 32.555,32.576 71.837,58.565 117,78 45.163,19.435 92.485,29 142,29 z M 711,221 c 1.379,0.069 2.64,0.052 4,0 8.207,-0.312 15.991,-2.984 23,-7 1.649,-0.92 3.442,-1.922 5,-3 2.198,-1.586 4.022,-3.124 6,-5 2.468,-2.341 4.929,-5.286 7,-8 0.826,-1.082 2.244,-1.868 3,-3 0.418,-0.611 0.604,-1.376 1,-2 4.456,-7.196 7.868,-14.776 9,-23 1.322,-9.6 -0.421,-19.965 -5,-29 -10.188,-23.67 -38.172,-37.088 -63,-33 -0.306,0.05 -0.695,-0.055 -1,0 -8.355,1.534 -16.208,5.136 -23,11 -3.861,2.948 -7.118,6.164 -10,10 -0.965,1.288 -1.157,2.631 -2,4 -1.428,2.236 -2.89,4.588 -4,7 -1.096,2.614 -2.28,5.248 -3,8 -0.497,1.672 -0.649,3.293 -1,5 -0.793,4.474 -1.158,9.473 -1,14 -0.369,-0.27 -0.63,-0.731 -1,-1 0.242,13.271 5.119,26.324 15,36 10.24,11.52 25.288,18.936 41,19 z"
       id="path4187"
       inkscape:connector-curvature="0" />
  </g>
</svg>
