<?xml version="1.0" encoding="UTF-8" standalone="no"?>
<svg
   xmlns:dc="http://purl.org/dc/elements/1.1/"
   xmlns:cc="http://creativecommons.org/ns#"
   xmlns:rdf="http://www.w3.org/1999/02/22-rdf-syntax-ns#"
   xmlns:svg="http://www.w3.org/2000/svg"
   xmlns="http://www.w3.org/2000/svg"
   xmlns:sodipodi="http://sodipodi.sourceforge.net/DTD/sodipodi-0.dtd"
   xmlns:inkscape="http://www.inkscape.org/namespaces/inkscape"
   width="16"
   height="16"
   id="svg5968"
   version="1.1"
   inkscape:version="0.91 r13725"
   sodipodi:docname="line.svg">
  <metadata
     id="metadata5978">
    <rdf:RDF>
      <cc:Work
         rdf:about="">
        <dc:format>image/svg+xml</dc:format>
        <dc:type
           rdf:resource="http://purl.org/dc/dcmitype/StillImage" />
        <dc:title></dc:title>
      </cc:Work>
    </rdf:RDF>
  </metadata>
  <defs
     id="defs5976" />
  <sodipodi:namedview
     pagecolor="#ffffff"
     bordercolor="#666666"
     borderopacity="1"
     objecttolerance="10"
     gridtolerance="10"
     guidetolerance="10"
     inkscape:pageopacity="0"
     inkscape:pageshadow="2"
     inkscape:window-width="1629"
     inkscape:window-height="1026"
     id="namedview5974"
     showgrid="false"
     inkscape:zoom="4.1031669"
     inkscape:cx="30.372881"
     inkscape:cy="-4.3389831"
     inkscape:window-x="51"
     inkscape:window-y="24"
     inkscape:window-maximized="1"
     inkscape:current-layer="svg5968" />
  <g
     id="g5970"
     transform="matrix(0.0156,0,0,-0.0156,1.4555116,15.321831)">
    <path
       d="m 331.424,965.024 c -80.736,0.544 -151.008,-78.912 -140.416,-159.104 7.008,-73.888 77.984,-136.416 152.896,-129.28 68.192,3.84 130.176,61.504 134.56,130.24 6.432,62.464 -31.808,126.688 -91.232,148.224 -17.696,6.976 -36.704,10.496 -55.84,9.92 z m 2.944,-87.392 c 38.816,1.952 70.208,-44.832 52.512,-79.744 -13.76,-31.968 -59.552,-45.504 -86.72,-22.048 -25.152,19.2 -30.304,60.192 -7.168,82.848 10.24,11.52 25.632,18.88 41.344,18.944 z M 157.696,443.872 C 77.184,444.352 6.88,365.344 17.28,285.248 24,210.848 95.712,147.968 170.976,155.552 c 68.096,4.256 129.44,61.664 133.792,130.496 5.952,59.744 -28.608,121.344 -84.064,144.832 -19.552,9.024 -41.344,13.696 -63.04,12.992 z m 3.104,-87.36 c 39.2,1.792 70.784,-45.856 51.712,-81.12 -14.624,-31.648 -60.224,-43.712 -86.816,-20.064 -24.192,19.2 -29.312,59.168 -6.848,81.792 10.368,11.808 26.016,19.392 41.952,19.392 z m 516,-94.016 c -80.064,1.472 -150.816,-75.52 -142.528,-155.232 4.768,-74.688 75.552,-139.392 151.168,-133.248 68.576,2.752 131.36,60 136.544,129.248 6.56,59.968 -27.872,122.08 -83.456,146.048 -19.264,8.928 -40.448,13.664 -61.728,13.216 z m 0.544,-87.424 c 39.424,2.368 71.456,-45.376 52.64,-80.768 -13.92,-30.688 -58.112,-43.84 -84.768,-22.048 -27.168,19.04 -32.032,62.56 -7.264,85.376 10.272,10.528 24.64,17.376 39.424,17.408 z M 240.832,313.696 c -9.184,-26.72 -18.08,-53.312 -27.84,-79.808 123.008,-42.88 246.112,-85.44 368.896,-128.928 9.792,27.712 18.976,55.36 29.152,82.912 -123.072,42.944 -246.208,85.6 -369.152,128.928 -0.352,-1.024 -0.704,-2.08 -1.056,-3.104 z m 27.296,440.672 C 225.504,633.728 183.2,512.96 140.16,392.448 c 27.68,-9.6 55.328,-19.36 82.848,-29.376 42.816,121.728 85.632,243.424 128.928,364.992 -27.648,9.568 -55.232,19.296 -82.688,29.376 l -1.12,-3.04 z"
       id="path5972"
       inkscape:connector-curvature="0" />
  </g>
</svg>
