<?xml version="1.0" encoding="UTF-8" standalone="no"?>
<svg
   xmlns:dc="http://purl.org/dc/elements/1.1/"
   xmlns:cc="http://creativecommons.org/ns#"
   xmlns:rdf="http://www.w3.org/1999/02/22-rdf-syntax-ns#"
   xmlns:svg="http://www.w3.org/2000/svg"
   xmlns="http://www.w3.org/2000/svg"
   xmlns:sodipodi="http://sodipodi.sourceforge.net/DTD/sodipodi-0.dtd"
   xmlns:inkscape="http://www.inkscape.org/namespaces/inkscape"
   width="15.000003"
   height="15"
   id="svg5956"
   version="1.1"
   inkscape:version="0.91 r13725"
   sodipodi:docname="search-go.svg">
  <metadata
     id="metadata5966">
    <rdf:RDF>
      <cc:Work
         rdf:about="">
        <dc:format>image/svg+xml</dc:format>
        <dc:type
           rdf:resource="http://purl.org/dc/dcmitype/StillImage" />
        <dc:title></dc:title>
      </cc:Work>
    </rdf:RDF>
  </metadata>
  <defs
     id="defs5964" />
  <sodipodi:namedview
     pagecolor="#ffffff"
     bordercolor="#666666"
     borderopacity="1"
     objecttolerance="10"
     gridtolerance="10"
     guidetolerance="10"
     inkscape:pageopacity="0"
     inkscape:pageshadow="2"
     inkscape:window-width="1629"
     inkscape:window-height="1026"
     id="namedview5962"
     showgrid="false"
     fit-margin-top="0"
     fit-margin-left="0"
     fit-margin-right="0"
     fit-margin-bottom="0"
     inkscape:zoom="23.471773"
     inkscape:cx="5.7294692"
     inkscape:cy="8.5670405"
     inkscape:window-x="51"
     inkscape:window-y="24"
     inkscape:window-maximized="1"
     inkscape:current-layer="svg5956" />
  <g
     id="g5958"
     transform="matrix(0.01270532,0,0,-0.01270532,-1.2492089e-5,11.15165)">
    <path
       d="m 402.286,877.714 c -54.467,0 -106.859,-10.862 -156.571,-32 C 196.003,824.576 153.726,796.01 117.715,760 81.704,723.989 53.139,681.713 32.001,632 c -21.138,-49.713 -32,-102.104 -32,-156.571 0,-54.467 10.862,-106.859 32,-156.571 21.138,-49.712 49.704,-91.989 85.714,-128 36.011,-36.011 78.287,-64.576 128,-85.714 49.713,-21.138 102.104,-32 156.571,-32 83.797,0 159.235,23.631 227.429,70.857 L 826.286,-51.428 c 13.702,-14.482 30.851,-21.714 51.429,-21.714 19.797,0 36.946,7.232 51.429,21.714 14.483,14.482 21.714,31.631 21.714,51.429 0,20.187 -6.479,37.336 -20.571,51.429 L 733.716,248.001 c 25.506,36.831 44.269,75.189 56,116.571 -0.201,2.613 -1.143,5.453 -1.143,8 0,8.177 2.888,16.633 4.571,25.143 l -26.286,0 c -32.809,0 -74.097,19.481 -94.857,43.429 -5.102,5.885 -10.66,12.129 -14.857,19.429 -3.294,-64.156 -27.728,-119.179 -74.286,-165.714 -50.103,-50.078 -110.11,-75.404 -180.571,-75.429 -70.461,-0.025 -130.469,25.301 -180.571,75.429 -50.103,50.127 -75.429,110.135 -75.429,180.571 0,70.436 25.326,130.444 75.429,180.571 50.103,50.127 110.11,75.453 180.571,75.429 70.461,-0.024 130.469,-25.35 180.571,-75.429 24.793,-24.781 44.618,-51.364 57.143,-81.143 1.821,29.786 14.188,60.596 32,81.143 15.362,17.72 41.339,33.254 67.429,40 -15.048,23.286 -33.236,44.664 -52.571,64 -36.011,36.011 -78.287,64.576 -128,85.714 -49.713,21.138 -102.104,32 -156.571,32 z m 778.323,-329.143 q 0,-16.483 -11.288,-27.771 L 970.666,322.145 q -11.894,-11.288 -27.771,-11.288 -15.565,0 -27.459,11.288 l -22.889,22.889 q -11.601,11.601 -11.601,27.771 0,16.17 11.601,27.771 l 89.407,89.407 -214.826,0 q -15.858,0 -25.779,11.444 -9.921,11.444 -9.921,27.615 l 0,39.059 q 0,16.17 9.921,27.615 9.921,11.445 25.779,11.444 l 214.826,0 -89.407,89.719 q -11.601,10.976 -11.601,27.459 0,16.483 11.601,27.459 l 22.889,22.889 q 11.601,11.601 27.459,11.601 16.171,0 27.771,-11.601 l 198.655,-198.655 q 11.288,-10.683 11.288,-27.459 z"
       id="path5960"
       inkscape:connector-curvature="0" />
  </g>
</svg>
