<?xml version="1.0" encoding="UTF-8" standalone="no"?>
<svg
   xmlns:dc="http://purl.org/dc/elements/1.1/"
   xmlns:cc="http://creativecommons.org/ns#"
   xmlns:rdf="http://www.w3.org/1999/02/22-rdf-syntax-ns#"
   xmlns:svg="http://www.w3.org/2000/svg"
   xmlns="http://www.w3.org/2000/svg"
   xmlns:sodipodi="http://sodipodi.sourceforge.net/DTD/sodipodi-0.dtd"
   xmlns:inkscape="http://www.inkscape.org/namespaces/inkscape"
   width="13"
   height="13"
   id="svg4183"
   version="1.1"
   inkscape:version="0.91 r13725"
   sodipodi:docname="stack-indeterminate.svg">
  <metadata
     id="metadata4193">
    <rdf:RDF>
      <cc:Work
         rdf:about="">
        <dc:format>image/svg+xml</dc:format>
        <dc:type
           rdf:resource="http://purl.org/dc/dcmitype/StillImage" />
        <dc:title></dc:title>
      </cc:Work>
    </rdf:RDF>
  </metadata>
  <defs
     id="defs4191" />
  <sodipodi:namedview
     pagecolor="#ffffff"
     bordercolor="#666666"
     borderopacity="1"
     objecttolerance="10"
     gridtolerance="10"
     guidetolerance="10"
     inkscape:pageopacity="0"
     inkscape:pageshadow="2"
     inkscape:window-width="1629"
     inkscape:window-height="1026"
     id="namedview4189"
     showgrid="false"
     inkscape:zoom="34.393903"
     inkscape:cx="-3.0574762"
     inkscape:cy="8.001044"
     inkscape:window-x="51"
     inkscape:window-y="24"
     inkscape:window-maximized="1"
     inkscape:current-layer="svg4183" />
  <g
     id="g4185"
     transform="matrix(0.01269531,0,0,-0.01269531,0.0128,11.9888)">
    <path
       d="M 512,896 0,640 512,384 1024,640 512,896 Z M 512,811.072 854.048,640 512,468.928 169.952,640 512,811.072 Z M 921.44,307.264 1024,256 512,0 0,256 102.56,307.264 512,102.528 Z m -818.88,192 L 0,448 166.496,364.736 268.992,416 Z m 818.88,0 L 755.069,416 857.629,364.672 1024,448 Z M 639.136,358.048 512,294.496 422.496,339.264 320,288 512,192 704,288 601.504,339.264 Z"
       id="path4187"
       inkscape:connector-curvature="0" />
  </g>
</svg>
