<?xml version="1.0" encoding="UTF-8" standalone="no"?>
<!-- Created with Inkscape (http://www.inkscape.org/) -->

<svg
   xmlns:dc="http://purl.org/dc/elements/1.1/"
   xmlns:cc="http://creativecommons.org/ns#"
   xmlns:rdf="http://www.w3.org/1999/02/22-rdf-syntax-ns#"
   xmlns:svg="http://www.w3.org/2000/svg"
   xmlns="http://www.w3.org/2000/svg"
   xmlns:sodipodi="http://sodipodi.sourceforge.net/DTD/sodipodi-0.dtd"
   xmlns:inkscape="http://www.inkscape.org/namespaces/inkscape"
   id="svg2"
   version="1.1"
   inkscape:version="0.92.3 (2405546, 2018-03-11)"
   xml:space="preserve"
   width="261.70001"
   height="41.68"
   viewBox="0 0 261.70001 41.68"
   sodipodi:docname="logo.svg"><metadata
     id="metadata8"><rdf:RDF><cc:Work
         rdf:about=""><dc:format>image/svg+xml</dc:format><dc:type
           rdf:resource="http://purl.org/dc/dcmitype/StillImage" /><dc:title></dc:title></cc:Work></rdf:RDF></metadata><defs
     id="defs6" /><sodipodi:namedview
     pagecolor="#ffffff"
     bordercolor="#666666"
     borderopacity="1"
     objecttolerance="10"
     gridtolerance="10"
     guidetolerance="10"
     inkscape:pageopacity="0"
     inkscape:pageshadow="2"
     inkscape:window-width="1613"
     inkscape:window-height="995"
     id="namedview4"
     showgrid="false"
     fit-margin-top="5"
     fit-margin-left="5"
     fit-margin-right="5"
     fit-margin-bottom="5"
     inkscape:zoom="6.2769869"
     inkscape:cx="56.045502"
     inkscape:cy="43.525562"
     inkscape:window-x="67"
     inkscape:window-y="27"
     inkscape:window-maximized="1"
     inkscape:current-layer="g10"
     showguides="true"
     inkscape:guide-bbox="true"
     scale-x="0.6"><sodipodi:guide
       position="-3.9828026,20.830058"
       orientation="0,1"
       id="guide4540"
       inkscape:locked="false" /></sodipodi:namedview><g
     id="g10"
     inkscape:groupmode="layer"
     inkscape:label="ink_ext_XXXXXX"
     transform="matrix(0,1.25,1.25,0,57.819375,-195.64648)"><g
       id="g4538"
       transform="matrix(0.6,0,0,0.6,72.929884,-18.501495)"
       style="stroke-width:1.66666663"><path
         d="m 182.0575,-42.2555 c 0,0 -1.523,0.46875 -3.241,0.91797 0,0 -1.719,0.44961 -3.614,0.80078 0,0 -1.895,0.35195 -3.906,0.56641 0,0 -2.012,0.21484 -4.121,0.21484 0,0 -2.109,0 -4.121,-0.21484 0,0 -2.012,-0.21446 -3.906,-0.56641 0,0 -1.895,-0.35117 -3.614,-0.80078 0,0 -1.718,-0.44922 -3.242,-0.91797 0,0 1.445,1.40625 3.184,3.125 0,0 1.738,1.71875 3.652,3.69141 0,0 1.914,1.97304 3.945,4.19919 0,0 2.031,2.227 4.102,4.6489 v 0 c 0,0 2.07,-2.4219 4.101,-4.6489 0,0 2.031,-2.22615 3.946,-4.19919 0,0 1.914,-1.97266 3.652,-3.69141 0,0 1.738,-1.71875 3.183,-3.125 z m -14.882,71.602 c 0,0 2.382,0 4.453,-0.8989 0,0 2.07,-0.898 3.633,-2.441 0,0 1.562,-1.5433 2.461,-3.6332 0,0 0.898,-2.0898 0.898,-4.4332 0,0 0,-2.3832 -0.898,-4.4535 0,0 -0.899,-2.0703 -2.461,-3.6328 0,0 -1.563,-1.5625 -3.633,-2.4614 0,0 -2.071,-0.898 -4.453,-0.898 0,0 -2.383,0 -4.453,0.898 0,0 -2.071,0.8989 -3.633,2.4614 0,0 -1.563,1.5625 -2.461,3.6328 0,0 -0.899,2.0703 -0.899,4.4535 0,0 0,2.3434 0.899,4.4332 0,0 0.898,2.0899 2.461,3.6332 0,0 1.562,1.543 3.633,2.441 0,0 2.07,0.8989 4.453,0.8989 z m 0,-51.5239 c 0,0 4.922,5.9375 8.652,11.4649 0,0 3.73,5.5277 6.25,10.5859 0,0 2.52,5.0586 3.809,9.5899 0,0 1.289,4.5312 1.289,8.4769 0,0 0,4.1406 -1.582,7.7731 0,0 -1.582,3.6332 -4.297,6.3476 0,0 -2.715,2.7149 -6.347,4.2969 0,0 -3.633,1.5824 -7.774,1.5824 0,0 -4.141,0 -7.773,-1.5824 0,0 -3.633,-1.582 -6.348,-4.2969 0,0 -2.715,-2.7144 -4.297,-6.3476 0,0 -1.582,-3.6325 -1.582,-7.7731 0,0 0,-3.9457 1.289,-8.4769 0,0 1.289,-4.5313 3.809,-9.5899 0,0 2.519,-5.0582 6.25,-10.5859 0,0 3.73,-5.5274 8.652,-11.4649 v 0"
         style="fill:#005eb8;fill-opacity:1;fill-rule:nonzero;stroke:none;stroke-width:1.66666663"
         id="path14"
         inkscape:connector-curvature="0" /><path
         d="m 170.4675,65.7795 h -2.64 v 9.072 h 16.128 c 0,0 0.288,-1.392 0.744,-4.896 0,0 0.456,-3.504 0.456,-5.808 0,0 0,-7.1999 -4.224,-9.9839 0,0 -4.224,-2.7839 -12.816,-2.7839 0,0 -4.272,0 -7.296,0.5761 0,0 -3.024,0.5762 -5.376,2.016 0,0 -4.608,2.736 -4.608,10.1277 0,0 0,4.512 0.912,9.168 l 0.336,1.584 2.544,-0.144 c 0,0 -1.104,-6 -1.104,-10.368 0,0 0,-5.807 3.48,-7.8477 0,0 3.48,-2.0399 11.064,-2.0399 0,0 7.584,0 10.992,2.0399 0,0 3.408,2.0407 3.408,7.7997 0,0 0,3.408 -0.768,7.632 h -11.232 v -6.144"
         style="fill:#000000;fill-opacity:1;fill-rule:nonzero;stroke:none;stroke-width:1.66666663"
         id="path16"
         inkscape:connector-curvature="0" /><path
         d="m 182.2755,97.6035 -0.144,1.44 2.352,0.096 c 0,0 0.672,-5.424 0.672,-9.168 0,0 -0.048,-5.184 -3.072,-7.248 0,0 -3.024,-2.064 -9.312,-2.064 0,0 -12.576,0 -12.576,9.888 0,0 0,4.752 2.712,7.104 0,0 2.712,2.352 8.664,2.352 l 2.304,-0.096 v -16.32 c 0,0 4.416,0 6.552,1.512 0,0 2.136,1.512 2.136,5.184 0,0 0,3.672 -0.288,7.32 z m -10.8,-14.016 v 13.536 c 0,0 -4.752,0 -6.768,-1.56 0,0 -2.016,-1.56 -2.016,-4.992 0,0 0,-3.432 2.088,-5.208 0,0 2.088,-1.776 6.696,-1.776"
         style="fill:#000000;fill-opacity:1;fill-rule:nonzero;stroke:none;stroke-width:1.66666663"
         id="path18"
         inkscape:connector-curvature="0" /><path
         d="m 172.6275,104.8995 c 0,0 -6.768,0 -9.6,2.28 0,0 -2.832,2.28 -2.832,7.776 0,0 0,5.496 2.832,7.776 0,0 2.832,2.28 9.6,2.28 0,0 6.768,0 9.648,-2.088 0,0 2.88,-2.088 2.88,-7.944 0,0 0,-5.856 -2.88,-7.968 0,0 -2.88,-2.112 -9.648,-2.112 z m -0.072,2.976 c 0,0 5.688,0 7.872,1.32 0,0 2.184,1.32 2.184,5.76 0,0 0,4.44 -2.208,5.784 0,0 -2.208,1.344 -7.848,1.344 0,0 -5.64,0 -7.728,-1.512 0,0 -2.088,-1.512 -2.088,-5.592 0,0 0,-4.08 2.064,-5.592 0,0 2.064,-1.512 7.752,-1.512"
         style="fill:#000000;fill-opacity:1;fill-rule:nonzero;stroke:none;stroke-width:1.66666663"
         id="path20"
         inkscape:connector-curvature="0" /><path
         d="m 184.6755,130.9155 h -32.64 v 11.28 l 23.808,5.76 -23.808,5.76 v 11.28 h 32.64 v -6.624 h -25.248 v -0.72 l 23.808,-6.384 v -6.624 l -23.808,-6.384 v -0.72 h 25.248 v -6.624"
         style="fill:#000000;fill-opacity:1;fill-rule:nonzero;stroke:none;stroke-width:1.66666663"
         id="path22"
         inkscape:connector-curvature="0" /><path
         d="m 168.1635,189.9075 h 9.984 c 0,0 1.152,0.096 1.608,0.384 0,0 0.456,0.288 0.648,1.2 l 4.848,-0.192 c 0,0 0,-2.448 -0.336,-3.912 0,0 -0.336,-1.464 -1.344,-2.952 0,0 1.68,-3.456 1.68,-7.056 0,0 0,-7.44 -7.872,-7.44 0,0 -3.84,0 -5.448,2.064 0,0 -1.608,2.064 -1.896,6.336 l -0.384,5.136 h -1.488 c 0,0 -1.488,0 -2.04,-0.672 0,0 -0.552,-0.672 -0.552,-2.16 l 0.384,-9.024 -4.464,-0.192 c 0,0 -1.392,5.136 -1.392,9.768 0,0 0,4.632 1.92,6.672 0,0 1.92,2.04 6.144,2.04 z m 6.336,-10.8 c 0,0 0.24,-2.688 2.88,-2.688 0,0 2.64,0 2.64,2.352 0,0 0,1.824 -0.576,3.984 l -0.192,0.72 h -5.136 l 0.384,-4.368"
         style="fill:#000000;fill-opacity:1;fill-rule:nonzero;stroke:none;stroke-width:1.66666663"
         id="path24"
         inkscape:connector-curvature="0" /><path
         d="m 194.7555,196.0515 h -34.08 v 6.384 h 1.296 c 0,0 -1.872,3.12 -1.872,5.472 0,0 0,4.848 2.904,7.152 0,0 2.904,2.304 9.864,2.304 0,0 6.96,0 9.672,-2.544 0,0 2.712,-2.544 2.712,-8.352 0,0 0,-1.584 -0.288,-3.408 l -0.096,-0.576 h 9.888 z m -28.896,10.608 c 0,0 0,-1.776 0.72,-3.6 l 0.24,-0.576 h 12.576 c 0,0 0.288,2.16 0.288,3.504 0,0 0,2.784 -1.632,3.816 0,0 -1.632,1.032 -5.568,1.032 0,0 -6.624,0 -6.624,-4.176"
         style="fill:#000000;fill-opacity:1;fill-rule:nonzero;stroke:none;stroke-width:1.66666663"
         id="path26"
         inkscape:connector-curvature="0" /><path
         d="m 184.6755,223.1235 h -33.36 v 19.68 h 2.688 v -16.704 h 13.776 v 14.208 h 2.64 v -14.208 h 14.256 v -2.976"
         style="fill:#000000;fill-opacity:1;fill-rule:nonzero;stroke:none;stroke-width:1.66666663"
         id="path28"
         inkscape:connector-curvature="0" /><path
         d="m 184.6755,247.7475 h -24 v 2.832 h 24 z m -30,0 h -3.6 v 2.832 h 3.6 v -2.832"
         style="fill:#000000;fill-opacity:1;fill-rule:nonzero;stroke:none;stroke-width:1.66666663"
         id="path30"
         inkscape:connector-curvature="0" /><path
         d="m 162.8355,265.0275 c 0,0 0,-5.664 4.08,-5.664 0,0 1.872,0 2.64,1.248 0,0 0.768,1.248 1.512,5.64 0,0 0.744,4.392 2.04,6.192 0,0 1.296,1.8 4.968,1.8 0,0 3.672,0 5.376,-2.352 0,0 1.704,-2.352 1.704,-6.912 0,0 0,-2.64 -0.672,-6.816 l -0.192,-1.392 -2.544,0.192 c 0,0 0.816,5.376 0.816,8.256 0,0 0,2.88 -1.008,4.488 0,0 -1.008,1.608 -3.408,1.608 0,0 -2.4,0 -3.192,-1.32 0,0 -0.792,-1.32 -1.464,-5.664 0,0 -0.672,-4.344 -1.92,-6.12 0,0 -1.248,-1.776 -4.704,-1.776 0,0 -3.456,0 -5.04,2.448 0,0 -1.584,2.448 -1.584,6.048 0,0 0,2.88 0.624,7.2 l 0.192,1.296 2.544,-0.096 c 0,0 -0.768,-5.136 -0.768,-8.304"
         style="fill:#000000;fill-opacity:1;fill-rule:nonzero;stroke:none;stroke-width:1.66666663"
         id="path32"
         inkscape:connector-curvature="0" /><path
         d="m 184.6755,282.8835 v -2.832 h -34.656 v 2.832 h 12.048 c 0,0 -1.872,4.032 -1.872,7.776 0,0 0,4.8 2.544,6.408 0,0 2.544,1.608 9.312,1.608 h 12.624 v -2.88 h -12.48 c 0,0 -5.52,0 -7.464,-1.032 0,0 -1.944,-1.032 -1.944,-4.488 0,0 0,-1.68 0.408,-3.528 0,0 0.408,-1.848 0.84,-2.856 l 0.384,-1.008 h 20.256"
         style="fill:#000000;fill-opacity:1;fill-rule:nonzero;stroke:none;stroke-width:1.66666663"
         id="path34"
         inkscape:connector-curvature="0" /></g></g></svg>
