<?xml version="1.0" encoding="UTF-8" standalone="no"?>
<!-- Created with Inkscape (http://www.inkscape.org/) -->

<svg
   xmlns:dc="http://purl.org/dc/elements/1.1/"
   xmlns:cc="http://creativecommons.org/ns#"
   xmlns:rdf="http://www.w3.org/1999/02/22-rdf-syntax-ns#"
   xmlns:svg="http://www.w3.org/2000/svg"
   xmlns="http://www.w3.org/2000/svg"
   xmlns:sodipodi="http://sodipodi.sourceforge.net/DTD/sodipodi-0.dtd"
   xmlns:inkscape="http://www.inkscape.org/namespaces/inkscape"
   width="453.95358"
   height="469.99835"
   id="svg3815"
   version="1.1"
   inkscape:version="0.48.4 r9939"
   sodipodi:docname="tools.svg">
  <defs
     id="defs3817">
    <linearGradient
       id="linearGradient3788">
      <stop
         id="stop3790"
         offset="0"
         style="stop-color:#ff0000;stop-opacity:1;" />
      <stop
         id="stop3792"
         offset="1"
         style="stop-color:#ff0000;stop-opacity:0;" />
    </linearGradient>
  </defs>
  <sodipodi:namedview
     id="base"
     pagecolor="#ffffff"
     bordercolor="#666666"
     borderopacity="1.0"
     inkscape:pageopacity="0"
     inkscape:pageshadow="2"
     inkscape:zoom="0.5"
     inkscape:cx="567.20274"
     inkscape:cy="230.15941"
     inkscape:document-units="px"
     inkscape:current-layer="g4484"
     showgrid="false"
     inkscape:window-width="1600"
     inkscape:window-height="876"
     inkscape:window-x="2966"
     inkscape:window-y="24"
     inkscape:window-maximized="1"
     showguides="true"
     inkscape:guide-bbox="true"
     fit-margin-top="0"
     fit-margin-left="0"
     fit-margin-right="0"
     fit-margin-bottom="0" />
  <metadata
     id="metadata3820">
    <rdf:RDF>
      <cc:Work
         rdf:about="">
        <dc:format>image/svg+xml</dc:format>
        <dc:type
           rdf:resource="http://purl.org/dc/dcmitype/StillImage" />
        <dc:title />
      </cc:Work>
    </rdf:RDF>
  </metadata>
  <g
     inkscape:label="Layer 1"
     inkscape:groupmode="layer"
     id="layer1"
     style="display:none"
     transform="translate(-282.50762,-76.460127)">
    <g
       id="g3841"
       transform="translate(-46.454682,-14.999994)">
      <g
         inkscape:label="key_head"
         id="layer2"
         transform="matrix(0.65847107,0,0,0.70242128,291.07258,-58.902144)" />
      <path
         style="fill:#000000;fill-opacity:1;stroke:#ffffff;stroke-width:8.16109467;stroke-miterlimit:4;stroke-opacity:1;stroke-dasharray:none"
         d="m 781.51371,231.47587 c -17.6182,58.34617 -76.24001,92.25636 -130.93549,75.74053 -54.69549,-16.51584 -84.75255,-77.20349 -67.13436,-135.54965 17.6182,-58.34618 76.24001,-92.256379 130.9355,-75.740543 0.0725,0.0219 -3.84108,13.021093 -3.77102,12.986943 0.57615,-0.28094 -112.80936,38.21897 -45.50867,114.10299 63.83222,71.97318 101.58779,2.97053 101.72172,2.81428 0.0637,-0.0743 14.72373,5.55124 14.69231,5.64548 z"
         id="path2988"
         inkscape:connector-curvature="0"
         sodipodi:nodetypes="csscssssc" />
      <path
         style="fill:#000000;fill-opacity:1;stroke:#ffffff;stroke-width:12.24199963;stroke-linecap:butt;stroke-linejoin:miter;stroke-miterlimit:4;stroke-opacity:1;stroke-dasharray:none"
         d="m 530.28125,208.09375 -287.5,287.875 c -5.18169,5.18826 -8.05686,20.22662 -2.65625,25.3125 L 294.21875,582.25 c 6.18654,6.97547 19.81421,4.48613 25.34375,-1 L 607.6875,295.375 530.28125,208.09375 z M 311.625,488.1875 c 2.17971,-0.01 4.39475,0.30474 6.59375,0.96875 11.72802,3.54139 18.40082,15.80205 14.90625,27.375 -3.49457,11.57295 -15.83448,18.07264 -27.5625,14.53125 -11.72802,-3.54139 -18.40082,-15.7708 -14.90625,-27.34375 2.83933,-9.40302 11.52334,-15.48837 20.96875,-15.53125 z"
         transform="translate(46.454682,14.999994)"
         id="path3779"
         inkscape:connector-curvature="0" />
    </g>
  </g>
  <g
     id="g4428"
     inkscape:groupmode="layer"
     inkscape:label="Layer 1 copy"
     style="display:none"
     transform="translate(-282.50762,-76.460127)">
    <g
       transform="translate(-46.454682,-14.999994)"
       id="g4430">
      <g
         transform="matrix(0.65847107,0,0,0.70242128,291.07258,-58.902144)"
         id="g4432"
         inkscape:label="key_head" />
      <path
         sodipodi:nodetypes="csscssssc"
         inkscape:connector-curvature="0"
         id="path4434"
         d="m 781.51371,231.47587 c -17.6182,58.34617 -76.24001,92.25636 -130.93549,75.74053 -54.69549,-16.51584 -84.75255,-77.20349 -67.13436,-135.54965 17.6182,-58.34618 76.24001,-92.256379 130.9355,-75.740543 0.0725,0.0219 -3.84108,13.021093 -3.77102,12.986943 0.57615,-0.28094 -112.80936,38.21897 -45.50867,114.10299 63.83222,71.97318 101.58779,2.97053 101.72172,2.81428 0.0637,-0.0743 14.72373,5.55124 14.69231,5.64548 z"
         style="fill:#000000;fill-opacity:1;stroke:#ffffff;stroke-width:0;stroke-miterlimit:4;stroke-opacity:1;stroke-dasharray:none" />
      <path
         id="path4436"
         transform="translate(46.454682,14.999994)"
         d="m 530.28125,208.09375 -287.5,287.875 c -5.18169,5.18826 -8.05686,20.22662 -2.65625,25.3125 L 294.21875,582.25 c 6.18654,6.97547 19.81421,4.48613 25.34375,-1 L 607.6875,295.375 530.28125,208.09375 z M 311.625,488.1875 c 2.17971,-0.01 4.39475,0.30474 6.59375,0.96875 11.72802,3.54139 18.40082,15.80205 14.90625,27.375 -3.49457,11.57295 -15.83448,18.07264 -27.5625,14.53125 -11.72802,-3.54139 -18.40082,-15.7708 -14.90625,-27.34375 2.83933,-9.40302 11.52334,-15.48837 20.96875,-15.53125 z"
         style="fill:#000000;fill-opacity:1;stroke:#ffffff;stroke-width:0;stroke-linecap:butt;stroke-linejoin:miter;stroke-miterlimit:4;stroke-opacity:1;stroke-dasharray:none"
         inkscape:connector-curvature="0" />
    </g>
    <rect
       style="fill:#ffffff;fill-opacity:0.41764706;stroke:#ffffff;stroke-width:0;stroke-miterlimit:4;stroke-opacity:1;stroke-dasharray:none"
       id="rect4451"
       width="16.987141"
       height="157.29826"
       x="255.98959"
       y="484.7941"
       transform="matrix(0.75579991,-0.65480264,0.66457497,0.74722159,0,0)" />
  </g>
  <g
     style="display:inline"
     inkscape:label="Layer 1 copy copy"
     inkscape:groupmode="layer"
     id="g4484"
     transform="translate(-282.50762,-76.460127)">
    <path
       style="fill:#000000;fill-opacity:1;stroke:#ffffff;stroke-width:0;stroke-miterlimit:4;stroke-opacity:1;stroke-dasharray:none;display:inline"
       d="m 634.07499,76.589004 c -45.25307,2.334876 -86.32348,36.003156 -98.44955,84.997556 -2.63507,10.64678 -3.70973,21.30343 -3.401,31.68147 l 102.3837,103.16946 c 46.59583,-0.7615 89.42097,-34.90808 101.85302,-85.13874 0.0266,-0.0957 -14.89349,-4.9519 -14.95335,-4.87447 -0.12585,0.16283 -34.33786,70.98944 -101.73074,2.33895 -71.05483,-72.38079 40.22718,-116.59119 39.66599,-116.281452 -0.0683,0.03765 3.19359,-13.125292 3.12007,-13.143495 -9.5324,-2.35926 -19.09599,-3.233875 -28.48814,-2.749279 z"
       id="path4490-4"
       inkscape:connector-curvature="0" />
    <path
       style="fill:#000000;fill-opacity:1;stroke:#ffffff;stroke-width:0;stroke-miterlimit:4;stroke-opacity:1;stroke-dasharray:none"
       d="m 287.73122,456.24932 c -6.95007,6.95001 -6.97213,18.13017 -0.0221,25.0802 l 59.92729,59.9273 c 6.95004,6.95003 18.13063,6.9284 25.0802,-0.0221 1.85697,-2.1754 241.51824,-241.73352 243.89779,-244.0047 -2.23428,-2.21829 -60.73973,-60.82911 -84.90471,-84.95731 z m 60.94376,-19.97576 c 12.15027,-12.15027 31.84503,-12.12817 43.9953,0.0221 12.15026,12.15026 12.17236,31.84503 0.0221,43.9953 -12.15026,12.15026 -31.86712,12.15026 -44.01739,0 -12.15026,-12.15027 -12.15026,-31.86714 0,-44.0174 z"
       id="rect3025"
       inkscape:connector-curvature="0"
       sodipodi:nodetypes="ssscccssssss" />
  </g>
</svg>
